<?xml version="1.0" encoding="UTF-8"?>
<svg width="185px" height="58px" viewBox="0 0 185 58" version="1.1" xmlns="http://www.w3.org/2000/svg" xmlns:xlink="http://www.w3.org/1999/xlink">
    <!-- Generator: Sketch 61 (89581) - https://sketch.com -->
    <title>logo-gt-type</title>
    <desc>Created with Sketch.</desc>
    <defs>
        <polygon id="path-1" points="0 57.6040299 184.436716 57.6040299 184.436716 0 0 0"></polygon>
    </defs>
    <g id="Symbols" stroke="none" stroke-width="1" fill="none" fill-rule="evenodd">
        <g id="logoA" transform="translate(-0.000000, 0.000000)">
            <path d="M179.918483,29.3376866 L179.918483,28.1264428 L180.810348,28.1264428 C181.399403,28.1264428 181.565075,28.3022388 181.565075,28.6584328 C181.565075,29.026592 181.399403,29.3146766 180.704502,29.3376866 L179.918483,29.3376866 Z M180.542512,30.0822886 C180.802985,30.1052985 181.050572,30.0822886 181.229129,30.2746517 C181.451866,30.5010697 181.451866,30.8821144 181.502488,31.28801 C181.534701,31.5687313 181.606493,31.8724627 181.665398,32.1402985 L182.615249,32.1402985 C182.447736,31.7086318 182.395274,31.2143781 182.332687,30.7652239 C182.255373,30.245199 182.183582,29.9543532 181.523657,29.8245771 L181.523657,29.803408 C182.158731,29.6754726 182.494677,29.2419652 182.494677,28.6906468 C182.494677,27.6137811 181.588085,27.3744776 180.714627,27.3744776 L179.171119,27.3744776 L179.171119,32.1402985 L179.918483,32.1402985 L179.918483,30.0822886 L180.542512,30.0822886 Z M180.779975,33.873408 C183.021144,33.873408 184.818682,32.0648259 184.818682,29.8144527 C184.818682,27.5815672 183.021144,25.7711443 180.779975,25.7711443 C178.526841,25.7711443 176.716418,27.5815672 176.716418,29.8144527 C176.716418,32.0648259 178.526841,33.873408 180.779975,33.873408 Z M180.779975,33.1628607 C178.928134,33.1628607 177.429726,31.6672139 177.429726,29.8144527 C177.429726,27.9819403 178.928134,26.4826119 180.779975,26.4826119 C182.623532,26.4826119 184.103532,27.9819403 184.103532,29.8144527 C184.103532,31.6672139 182.623532,33.1628607 180.779975,33.1628607 Z" id="Fill-1" fill="#FFFFFF" fill-rule="evenodd"></path>
            <polygon id="Fill-3" fill="#FFFFFF" fill-rule="evenodd" points="3.25820896 52.4856965 0.92039801 52.4856965 0.92039801 51.5422886 6.89838308 51.5422886 6.89838308 52.4856965 4.56517413 52.4856965 4.56517413 57.5837811 3.25820896 57.5837811"></polygon>
            <polygon id="Fill-5" fill="#FFFFFF" fill-rule="evenodd" points="7.36318408 51.5422886 8.67199005 51.5422886 8.67199005 53.8957463 12.5385821 53.8957463 12.5385821 51.5422886 13.8400249 51.5422886 13.8400249 57.5837811 12.5385821 57.5837811 12.5385821 54.8465174 8.67199005 54.8465174 8.67199005 57.5837811 7.36318408 57.5837811"></polygon>
            <polygon id="Fill-7" fill="#FFFFFF" fill-rule="evenodd" points="16.5671642 51.5422886 21.9754229 51.5422886 21.9754229 52.4856965 17.8796517 52.4856965 17.8796517 54.0172388 21.8079104 54.0172388 21.8079104 54.963408 17.8796517 54.963408 17.8796517 56.6458955 22.0435323 56.6458955 22.0435323 57.5837811 16.5671642 57.5837811"></polygon>
            <path d="M29.3358458,54.2510199 C30.0592786,54.2510199 30.4522886,54.0374876 30.4522886,53.3683582 C30.4522886,52.7360448 30.0298259,52.4856965 29.3358458,52.4856965 L27.0799502,52.4856965 L27.0799502,54.2510199 L29.3358458,54.2510199 Z M25.7711443,51.5422886 L29.7150498,51.5422886 C31.2990547,51.5422886 31.8144776,52.246393 31.8144776,53.1815174 C31.8144776,53.9684577 31.3708458,54.4599502 30.7845522,54.6449502 L30.7845522,54.6587562 C31.5236318,54.8069403 31.6948259,55.4374129 31.6948259,56.2933831 C31.6948259,56.5787065 31.7012687,57.5837811 31.7012687,57.5837811 L30.3823383,57.5837811 C30.3823383,57.5837811 30.3897015,57.1125373 30.3897015,56.6707463 C30.3897015,55.8055721 30.2580846,55.1962687 29.3054726,55.1962687 L27.0799502,55.1962687 L27.0799502,57.5837811 L25.7711443,57.5837811 L25.7711443,51.5422886 L25.7711443,51.5422886 Z" id="Fill-9" fill="#FFFFFF" fill-rule="evenodd"></path>
            <path d="M68.9111194,54.2510199 C69.6308706,54.2510199 70.0238806,54.0374876 70.0238806,53.3683582 C70.0238806,52.7360448 69.5995771,52.4856965 68.9111194,52.4856965 L66.6533831,52.4856965 L66.6533831,54.2510199 L68.9111194,54.2510199 Z M65.3482587,51.5422886 L69.284801,51.5422886 C70.8724876,51.5422886 71.3833085,52.246393 71.3833085,53.1815174 C71.3833085,53.9684577 70.940597,54.4599502 70.3579851,54.6449502 L70.3579851,54.6587562 C71.0933831,54.8069403 71.2682587,55.4374129 71.2682587,56.2933831 C71.2682587,56.5787065 71.2728607,57.5837811 71.2728607,57.5837811 L69.9557711,57.5837811 C69.9557711,57.5837811 69.9594527,57.1125373 69.9594527,56.6707463 C69.9594527,55.8055721 69.8361194,55.1962687 68.8789055,55.1962687 L66.6533831,55.1962687 L66.6533831,57.5837811 L65.3482587,57.5837811 L65.3482587,51.5422886 L65.3482587,51.5422886 Z" id="Fill-11" fill="#FFFFFF" fill-rule="evenodd"></path>
            <path d="M166.465945,54.2510199 C167.186617,54.2510199 167.58607,54.0374876 167.58607,53.3683582 C167.58607,52.7360448 167.158085,52.4856965 166.465945,52.4856965 L164.204527,52.4856965 L164.204527,54.2510199 L166.465945,54.2510199 Z M162.910448,51.5422886 L166.851592,51.5422886 C168.438358,51.5422886 168.95194,52.246393 168.95194,53.1815174 C168.95194,53.9684577 168.51199,54.4599502 167.922015,54.6449502 L167.922015,54.6587562 C168.662935,54.8069403 168.83597,55.4374129 168.83597,56.2933831 C168.83597,56.5787065 168.839652,57.5837811 168.839652,57.5837811 L167.520721,57.5837811 C167.520721,57.5837811 167.527164,57.1125373 167.527164,56.6707463 C167.527164,55.8055721 167.397388,55.1962687 166.444776,55.1962687 L164.221095,55.1962687 L164.221095,57.5837811 L162.910448,57.5837811 L162.910448,51.5422886 L162.910448,51.5422886 Z" id="Fill-13" fill="#FFFFFF" fill-rule="evenodd"></path>
            <polygon id="Fill-15" fill="#FFFFFF" fill-rule="evenodd" points="34.0547264 51.5422886 39.4602239 51.5422886 39.4602239 52.4856965 35.3653731 52.4856965 35.3653731 54.0172388 39.2908706 54.0172388 39.2908706 54.963408 35.3653731 54.963408 35.3653731 56.6458955 39.5246517 56.6458955 39.5246517 57.5837811 34.0547264 57.5837811"></polygon>
            <path d="M45.0939801,55.1428856 L44.0373632,52.5924627 L42.9512935,55.1428856 L45.0939801,55.1428856 Z M43.2734328,51.5422886 L44.8252239,51.5422886 L47.5983831,57.5837811 L46.1441542,57.5837811 L45.4888308,56.0881343 L42.5573632,56.0881343 L41.9066418,57.5837811 L40.4975124,57.5837811 L43.2734328,51.5422886 Z" id="Fill-17" fill="#FFFFFF" fill-rule="evenodd"></path>
            <polygon id="Fill-19" fill="#FFFFFF" fill-rule="evenodd" points="48.7810945 51.5422886 50.0917413 51.5422886 50.0917413 56.5897512 53.8736567 56.5897512 53.8736567 57.5837811 48.7810945 57.5837811"></polygon>
            <path d="M59.2938806,56.6458955 L61.1319154,56.6458955 C62.074403,56.6458955 63.085,56.3421642 63.085,54.5713184 C63.085,52.611791 61.7955224,52.4856965 61.0665672,52.4856965 L59.2938806,52.4856965 L59.2938806,56.6458955 Z M57.9850746,51.5422886 L61.3426866,51.5422886 C63.7771393,51.5422886 64.3864428,52.896194 64.3864428,54.6274627 C64.3864428,55.9270647 63.7752985,57.5847015 61.6537811,57.5847015 L57.9850746,57.5847015 L57.9850746,51.5422886 L57.9850746,51.5422886 Z" id="Fill-21" fill="#FFFFFF" fill-rule="evenodd"></path>
            <mask id="mask-2" fill="white">
                <use xlink:href="#path-1"></use>
            </mask>
            <g id="Clip-24"></g>
            <polygon id="Fill-23" fill="#FFFFFF" fill-rule="evenodd" mask="url(#mask-2)" points="72.7114428 57.5837811 74.0220896 57.5837811 74.0220896 51.5422886 72.7114428 51.5422886"></polygon>
            <polygon id="Fill-25" fill="#FFFFFF" fill-rule="evenodd" mask="url(#mask-2)" points="75.4726368 51.5422886 76.9406716 51.5422886 78.9738308 56.3835821 80.9563682 51.5422886 82.3654975 51.5422886 79.6346766 57.5837811 78.2494776 57.5837811"></polygon>
            <polygon id="Fill-26" fill="#FFFFFF" fill-rule="evenodd" mask="url(#mask-2)" points="82.8358209 57.5837811 84.1409453 57.5837811 84.1409453 51.5422886 82.8358209 51.5422886"></polygon>
            <polygon id="Fill-27" fill="#FFFFFF" fill-rule="evenodd" mask="url(#mask-2)" points="86.5174129 51.5422886 88.0102985 51.5422886 91.7167413 56.0798507 91.7333085 56.0798507 91.7333085 51.5422886 92.9804478 51.5422886 92.9804478 57.5837811 91.5179353 57.5837811 87.7857214 53.0434577 87.7608706 53.0434577 87.7608706 57.5837811 86.5174129 57.5837811"></polygon>
            <path d="M101.787736,57.7476119 L100.860896,57.7476119 L100.845249,56.9606716 C100.334428,57.5552488 99.4425622,57.918806 98.4706219,57.918806 C95.8382836,57.918806 94.800995,56.4277612 94.800995,54.7241045 C94.800995,53.0287313 95.8981095,51.5422886 98.438408,51.5422886 C100.327065,51.5422886 101.530025,52.4663682 101.675448,53.654602 L100.265398,53.654602 C100.029776,52.8326866 99.2391542,52.4820149 98.401592,52.4820149 C96.7890547,52.4820149 96.1696269,53.44199 96.1696269,54.7710448 C96.1696269,56.3780597 97.2262438,56.9726368 98.3261194,56.9726368 C99.6597761,56.9726368 100.272761,56.3780597 100.47893,55.3766667 L98.7218905,55.3766667 L98.7218905,54.4304975 L101.787736,54.4304975 L101.787736,57.7476119 Z" id="Fill-28" fill="#FFFFFF" fill-rule="evenodd" mask="url(#mask-2)"></path>
            <path d="M108.738582,51.5422886 C109.699478,51.5422886 111.608383,51.7061194 111.783259,53.460398 L110.368607,53.460398 C110.324428,52.9928358 109.88908,52.4820149 108.80209,52.4820149 C107.932313,52.4820149 107.353383,52.7452488 107.353383,53.3149751 C107.353383,54.7351493 111.985746,53.3720398 111.985746,55.9500746 C111.985746,57.51199 110.324428,57.918806 108.995373,57.918806 C106.754204,57.918806 105.864179,57.0628358 105.845771,55.793607 L107.251219,55.793607 C107.292637,56.5851493 107.97005,56.9726368 109.045075,56.9726368 C109.839378,56.9726368 110.580299,56.7425373 110.580299,56.0835323 C110.580299,54.5878856 105.987512,55.8856468 105.987512,53.4079353 C105.987512,52.056791 107.23097,51.5422886 108.738582,51.5422886" id="Fill-29" fill="#FFFFFF" fill-rule="evenodd" mask="url(#mask-2)"></path>
            <polygon id="Fill-30" fill="#FFFFFF" fill-rule="evenodd" mask="url(#mask-2)" points="114.129353 57.5837811 115.441841 57.5837811 115.441841 51.5422886 114.129353 51.5422886"></polygon>
            <polygon id="Fill-31" fill="#FFFFFF" fill-rule="evenodd" mask="url(#mask-2)" points="116.890547 51.5422886 118.760796 51.5422886 120.945821 56.2326368 123.110597 51.5422886 124.965199 51.5422886 124.965199 57.5837811 123.744751 57.5837811 123.800896 52.5924627 123.784328 52.5924627 121.47505 57.5837811 120.361368 57.5837811 118.078781 52.5924627 118.059453 52.5924627 118.108234 57.5837811 116.890547 57.5837811"></polygon>
            <path d="M127.014925,51.5422886 L128.328333,51.5422886 L128.328333,54.9523632 C128.328333,55.7862438 128.359627,56.8097264 130.063284,56.8097264 C131.770622,56.8097264 131.802836,55.7862438 131.802836,54.9523632 L131.802836,51.5422886 L133.104279,51.5422886 L133.104279,54.9845771 C133.104279,55.9822886 133.071144,57.7549751 130.063284,57.7549751 C127.047139,57.7549751 127.014925,55.9822886 127.014925,54.9845771 L127.014925,51.5422886 Z" id="Fill-32" fill="#FFFFFF" fill-rule="evenodd" mask="url(#mask-2)"></path>
            <polygon id="Fill-33" fill="#FFFFFF" fill-rule="evenodd" mask="url(#mask-2)" points="135.298507 51.5422886 136.610995 51.5422886 136.610995 56.5897512 140.39107 56.5897512 140.39107 57.5837811 135.298507 57.5837811"></polygon>
            <path d="M145.397114,55.1428856 L144.334975,52.5924627 L143.257189,55.1428856 L145.397114,55.1428856 Z M143.594055,51.5422886 L145.152289,51.5422886 L147.917164,57.5837811 L146.468458,57.5837811 L145.814055,56.0881343 L142.882587,56.0881343 L142.231866,57.5837811 L140.820896,57.5837811 L143.594055,51.5422886 Z" id="Fill-34" fill="#FFFFFF" fill-rule="evenodd" mask="url(#mask-2)"></path>
            <polygon id="Fill-35" fill="#FFFFFF" fill-rule="evenodd" mask="url(#mask-2)" points="150.513607 52.4856965 148.18408 52.4856965 148.18408 51.5422886 154.158383 51.5422886 154.158383 52.4856965 151.824254 52.4856965 151.824254 57.5837811 150.513607 57.5837811"></polygon>
            <path d="M160.587363,54.7241045 C160.587363,53.3941294 159.756244,52.4820149 158.283607,52.4820149 C156.826617,52.4820149 155.993657,53.3941294 155.993657,54.7241045 C155.993657,56.0559204 156.826617,56.9726368 158.283607,56.9726368 C159.756244,56.9726368 160.587363,56.0559204 160.587363,54.7241045 M154.626866,54.7241045 C154.626866,53.0287313 155.655871,51.5422886 158.283607,51.5422886 C160.922388,51.5422886 161.948632,53.0287313 161.948632,54.7241045 C161.948632,56.4286816 160.922388,57.918806 158.283607,57.918806 C155.655871,57.918806 154.626866,56.4286816 154.626866,54.7241045" id="Fill-36" fill="#FFFFFF" fill-rule="evenodd" mask="url(#mask-2)"></path>
            <path d="M11.4527159,32.451393 C11.862293,31.1177363 12.3629896,29.0072637 10.6593328,29.0072637 C8.76515373,29.0072637 7.92483035,31.0330597 6.25614876,36.5324378 C4.53960647,42.1781592 4.26256667,43.9922637 6.10704428,43.9922637 C7.67632289,43.9922637 8.67955672,42.4892537 9.54289005,39.6525871 L9.74445722,38.9945025 L7.57047712,38.9945025 L8.55438259,35.7445771 L15.0155766,35.7445771 L11.6634871,46.8326119 L8.35281542,46.8326119 L8.97776567,44.8712438 L8.92622338,44.8712438 C7.64871095,46.7046766 5.75361144,47.2385075 3.96435771,47.2385075 C-0.953328854,47.2385075 -0.620144775,43.3884826 1.34398458,36.9291294 C3.39555174,30.1669652 5.17560149,25.7711443 11.7269945,25.7711443 C17.6976164,25.7711443 16.6271935,30.1071393 15.9184871,32.451393 L11.4527159,32.451393 Z" id="Fill-37" fill="#FFFFFF" fill-rule="evenodd" mask="url(#mask-2)"></path>
            <path d="M105.824602,34.4753483 L107.247537,34.4753483 C109.116866,34.4753483 110.063035,33.0119154 110.433035,31.7859453 C110.910721,30.2277114 110.67602,29.1756965 108.829701,29.1756965 L107.420572,29.1756965 L105.824602,34.4753483 Z M103.836542,25.7711443 L111.592736,25.7711443 C115.531119,25.7711443 116.105448,28.3215672 115.25408,31.151791 C114.340124,34.1568905 112.738632,35.6387313 110.414627,36.1863682 L110.400821,36.2425124 C113.210796,36.6778607 112.818706,38.5646766 112.22505,41.3912189 C111.357114,45.5164428 111.103085,46.4294776 111.103085,46.4294776 L106.453234,46.4294776 C106.453234,46.4294776 106.802065,44.765398 107.374552,42.2343035 C108.192786,38.5757214 108.000423,37.8946269 106.540672,37.8946269 L104.77903,37.8946269 L102.185348,46.4294776 L97.5621891,46.4294776 L103.836542,25.7711443 L103.836542,25.7711443 Z" id="Fill-38" fill="#FFFFFF" fill-rule="evenodd" mask="url(#mask-2)"></path>
            <path d="M22.9887811,34.4753483 L24.4144776,34.4753483 C26.283806,34.4753483 27.2290547,33.0119154 27.5999751,31.7859453 C28.0758209,30.2277114 27.8392786,29.1756965 25.9984826,29.1756965 L24.5856716,29.1756965 L22.9887811,34.4753483 Z M20.999801,25.7711443 L28.7596766,25.7711443 C32.6962189,25.7711443 33.2723881,28.3215672 32.4191791,31.151791 C31.5033831,34.1568905 29.9009701,35.6387313 27.5797264,36.1863682 L27.5640796,36.2425124 C30.3758955,36.6778607 29.9874876,38.5646766 29.3864677,41.3912189 C28.5240547,45.5164428 28.2663433,46.4294776 28.2663433,46.4294776 L23.6201741,46.4294776 C23.6201741,46.4294776 23.9680846,44.765398 24.5405721,42.2343035 C25.3597264,38.5757214 25.1655224,37.8946269 23.7048507,37.8946269 L21.9459701,37.8946269 L19.3504478,46.4294776 L14.7263682,46.4294776 L20.999801,25.7711443 L20.999801,25.7711443 Z" id="Fill-39" fill="#FFFFFF" fill-rule="evenodd" mask="url(#mask-2)"></path>
            <path d="M42.3990547,29.528209 L42.3484328,29.528209 L37.9305224,38.7303483 L41.2899751,38.7303483 L42.3990547,29.528209 Z M40.7395771,25.7711443 L46.5178358,25.7711443 L45.1464428,46.4294776 L40.3548507,46.4294776 L40.8445025,42.4966169 L36.1302239,42.4966169 L34.2452488,46.4294776 L29.4527363,46.4294776 L40.7395771,25.7711443 Z" id="Fill-40" fill="#FFFFFF" fill-rule="evenodd" mask="url(#mask-2)"></path>
            <polygon id="Fill-41" fill="#FFFFFF" fill-rule="evenodd" mask="url(#mask-2)" points="52.2868905 25.7711443 57.6058706 25.7711443 57.336194 39.1905473 57.3831343 39.1905473 61.4632587 25.7711443 65.7569154 25.7711443 59.4816418 46.4294776 54.2556219 46.4294776 54.5252985 32.1955224 54.4691542 32.1955224 50.1515672 46.4294776 46.0199005 46.4294776"></polygon>
            <polygon id="Fill-42" fill="#FFFFFF" fill-rule="evenodd" mask="url(#mask-2)" points="76.8624378 29.704005 72.7335323 29.704005 73.9300498 25.7711443 86.8119403 25.7711443 85.6191045 29.704005 81.490199 29.704005 76.4132836 46.4294776 71.7910448 46.4294776"></polygon>
            <path d="M97.3228746,39.6001244 C96.0996656,43.641592 94.0278497,46.8353731 88.6600885,46.8353731 C83.2941681,46.8353731 83.1634716,43.641592 84.3903621,39.6001244 L88.5919791,25.7711443 L93.2123771,25.7711443 L88.5846159,41.0110945 C88.0894417,42.6328358 88.4097403,43.5891294 89.6458348,43.5891294 C90.8856109,43.5891294 91.7811582,42.6328358 92.2735711,41.0110945 L96.8912079,25.7711443 L101.530934,25.7711443 L97.3228746,39.6001244 Z" id="Fill-43" fill="#FFFFFF" fill-rule="evenodd" mask="url(#mask-2)"></path>
            <polygon id="Fill-44" fill="#FFFFFF" fill-rule="evenodd" mask="url(#mask-2)" points="119.484229 25.7711443 124.101866 25.7711443 117.834876 46.4294776 113.208955 46.4294776"></polygon>
            <path d="M126.688353,40.5205224 L126.461935,41.2430348 C125.994373,42.8104726 126.037631,43.9913433 127.646487,43.9913433 C129.27099,43.9913433 130.118676,42.7175124 130.488676,41.534801 C131.840741,37.0800746 122.620194,39.5605473 124.977333,31.8448507 C125.976885,28.5498259 128.506139,25.7711443 133.261835,25.7711443 C137.885915,25.7711443 138.785144,28.2295274 137.825169,31.4131841 L137.678825,31.9065174 L133.213975,31.9065174 C133.516786,30.9189303 133.627233,30.1927363 133.484572,29.7325373 C133.372283,29.2419652 132.996761,29.0063433 132.30094,29.0063433 C131.152283,29.0063433 130.24201,29.7325373 129.785492,31.2392289 C128.473005,35.5503731 137.589547,33.3727114 135.373228,40.6733085 C133.952134,45.3526119 130.892731,47.2385075 126.665343,47.2385075 C123.301288,47.2385075 120.513403,46.1616418 121.822209,41.8504975 L122.226263,40.5205224 L126.688353,40.5205224 Z" id="Fill-45" fill="#FFFFFF" fill-rule="evenodd" mask="url(#mask-2)"></path>
            <polygon id="Fill-46" fill="#FFFFFF" fill-rule="evenodd" mask="url(#mask-2)" points="141.577463 25.7711443 148.341468 25.7711443 146.652537 39.3378109 146.698557 39.3378109 153.161592 25.7711443 159.855647 25.7711443 153.578532 46.4294776 149.287637 46.4294776 154.168507 30.344602 154.118806 30.344602 146.235597 46.4294776 142.650647 46.4294776 144.372711 30.344602 144.314726 30.344602 139.434776 46.4294776 135.298507 46.4294776"></polygon>
            <path d="M163.31921,43.9922637 C165.195901,43.9922637 166.02702,42.1781592 167.748165,36.5029851 C169.47115,30.8296517 169.747269,29.0072637 167.872418,29.0072637 C166.060155,29.0072637 165.224433,30.8296517 163.50421,36.5029851 C161.786747,42.1781592 161.506946,43.9922637 163.31921,43.9922637 M162.368438,47.2385075 C156.278165,47.2385075 156.723637,43.0663433 158.722742,36.5029851 C160.702518,29.9313433 162.801946,25.7711443 168.879334,25.7711443 C175.432568,25.7711443 174.275627,30.7799502 172.529632,36.5029851 C170.797443,42.2287811 168.918911,47.2385075 162.368438,47.2385075" id="Fill-47" fill="#FFFFFF" fill-rule="evenodd" mask="url(#mask-2)"></path>
            <path d="M86.2156478,0 L54.4517921,0 C54.0523393,0 53.6151503,0.311094527 53.4835334,0.690298507 C53.4835334,0.690298507 48.4075384,15.4562438 47.9583841,16.8138308 C47.7356478,17.4949254 47.8626627,17.8557214 48.6652498,17.8557214 L79.9007971,17.8557214 C80.6997025,17.8557214 81.1212448,17.3798756 81.4065682,16.5202239 C81.8308717,15.2132587 86.7117423,0.692139303 86.7117423,0.692139303 C86.8396777,0.311094527 86.6178617,0 86.2156478,0" id="Fill-48" fill="#FFFFFF" fill-rule="evenodd" mask="url(#mask-2)"></path>
            <path d="M44.8907311,0 L11.2814773,0 C10.8811042,0 10.4402335,0.309253731 10.3040146,0.686616915 C10.3040146,0.686616915 5.13597981,15.1939303 4.67394001,16.6389552 C4.43187533,17.4102488 4.82672608,17.8557214 5.4673231,17.8557214 L38.2841141,17.8557214 C39.2330445,17.8557214 39.6278952,17.4406219 39.8598355,16.7199502 C40.3089898,15.3448756 45.3803828,0.690298507 45.3803828,0.690298507 C45.5119997,0.311094527 45.292945,0 44.8907311,0" id="Fill-49" fill="#FFFFFF" fill-rule="evenodd" mask="url(#mask-2)"></path>
        </g>
    </g>
</svg>