<?xml version="1.0" encoding="UTF-8"?>
<svg width="58px" height="38px" viewBox="0 0 58 38" version="1.1" xmlns="http://www.w3.org/2000/svg" xmlns:xlink="http://www.w3.org/1999/xlink">
    <!-- Generator: Sketch 44.1 (41455) - http://www.bohemiancoding.com/sketch -->
    <title>logo-gt</title>
    <desc>Created with Sketch.</desc>
    <defs></defs>
    <g id="Symbols" stroke="none" stroke-width="1" fill="none" fill-rule="evenodd">
        <g id="header" transform="translate(-35.000000, -37.000000)" fill="#FFFFFF">
            <g id="Group-3" transform="translate(35.000000, 37.000000)">
                <path d="M43.4962973,0.930965144 C43.6653777,0.432300936 43.7927705,0.413151811 44.1902259,0.413151811 L57.3518241,0.413151811 C57.7650741,0.413151811 57.8735652,0.499978667 57.7386634,0.92230869 C57.6190384,1.29112609 53.9513152,11.6369001 53.4676366,13.112432 C53.3847795,13.376585 53.1077259,13.4382294 52.9764491,13.4382294 L41.4134759,13.4382294 C39.4474312,13.4382294 39.3896902,13.4558047 38.6279223,15.8137703 C37.074092,20.483796 33.9327705,29.893099 33.4014491,31.5530397 C33.322217,31.7930595 33.2056991,31.9271034 32.985092,31.9271034 L24.3588866,31.9271034 C24.1382795,31.9271034 24.1030652,31.8261114 24.1646902,31.6356694 C24.9422527,29.2436027 30.4993777,13.0358355 30.6342795,12.6998077 C30.8779312,12.1161529 31.1184759,11.6555246 31.9581812,11.6555246 L35.4821991,11.6555246 C37.7017348,11.6555246 39.8707795,11.2035528 40.9176277,8.21576458 C40.9176277,8.21576458 43.3714937,1.30502888 43.4962973,0.930965144" id="Fill-1"></path>
                <path d="M31.9262036,0.400193362 C30.8200607,0.365305229 27.6049446,0.247262676 24.7968643,0.551812463 C12.6872929,1.88989038 3.93990893,8.38406703 0.946176786,17.7663515 C-2.61331429,28.9457682 4.65947143,35.363086 9.68294464,37.1638908 C9.95067679,37.255177 10.1350339,37.2218628 10.2357571,36.9674155 C10.3388107,36.7090335 10.8872214,35.2815055 10.9496232,35.0745376 C11.0094357,34.8688812 10.8784179,34.7253939 10.6150875,34.6160078 C5.50047143,32.4356307 3.7855875,27.2220846 5.69622143,22.0030299 C7.77956071,16.3086571 14.4863286,12.8846361 20.6330339,12.1380825 C21.4155161,12.0423369 22.8010429,11.9006858 23.8957929,11.8828483 C26.9954268,11.8309096 28.6287482,11.1937421 29.3975071,8.98555941 C30.2467929,6.54312783 32.0520429,1.25796925 32.1651946,0.88416783 C32.2775696,0.515875064 32.1833196,0.410686033 31.9262036,0.400193362" id="Fill-3"></path>
                <path d="M25.9923375,18.2005907 L20.4227839,18.2024269 C18.4041768,18.2024269 16.4368375,19.5963783 15.5859982,21.9745423 C15.0425071,23.4972912 12.6929893,30.1727287 12.2453018,31.5876655 C12.1784982,31.8019783 12.2882839,31.9271034 12.4646143,31.9271034 L21.5276321,31.9271034 C21.7894089,31.9271034 21.8984179,31.8103724 21.9626321,31.6094378 C22.5687839,29.729938 26.3204,18.8600551 26.3538018,18.6617436 C26.3864268,18.4411352 26.2978732,18.2005907 25.9923375,18.2005907" id="Fill-5"></path>
            </g>
        </g>
    </g>
</svg>